<mxfile host="app.diagrams.net" modified="2023-10-23T11:50:32.394Z" agent="Mozilla/5.0 (Windows NT 10.0; Win64; x64) AppleWebKit/537.36 (KHTML, like Gecko) Chrome/118.0.0.0 Safari/537.36 Edg/118.0.2088.61" etag="kEZYkag7Vv9bzzp_mEL9" version="22.0.6" type="github">
  <diagram name="ページ1" id="YbB21cvTIW9AmVUsU71I">
    <mxGraphModel dx="2853" dy="1111" grid="1" gridSize="10" guides="1" tooltips="1" connect="1" arrows="1" fold="1" page="1" pageScale="1" pageWidth="827" pageHeight="1169" math="0" shadow="0">
      <root>
        <mxCell id="0" />
        <mxCell id="1" parent="0" />
        <mxCell id="Y3QZ4l64_NFPgr9rFoC2-5" style="edgeStyle=orthogonalEdgeStyle;rounded=0;orthogonalLoop=1;jettySize=auto;html=1;exitX=1;exitY=0.75;exitDx=0;exitDy=0;" parent="1" source="Y3QZ4l64_NFPgr9rFoC2-1" target="Y3QZ4l64_NFPgr9rFoC2-4" edge="1">
          <mxGeometry relative="1" as="geometry" />
        </mxCell>
        <mxCell id="Y3QZ4l64_NFPgr9rFoC2-6" style="edgeStyle=orthogonalEdgeStyle;rounded=0;orthogonalLoop=1;jettySize=auto;html=1;exitX=0.5;exitY=1;exitDx=0;exitDy=0;" parent="1" source="Y3QZ4l64_NFPgr9rFoC2-1" target="Y3QZ4l64_NFPgr9rFoC2-3" edge="1">
          <mxGeometry relative="1" as="geometry" />
        </mxCell>
        <mxCell id="Y3QZ4l64_NFPgr9rFoC2-1" value="" style="rounded=0;whiteSpace=wrap;html=1;" parent="1" vertex="1">
          <mxGeometry x="-230" y="350" width="100" height="20" as="geometry" />
        </mxCell>
        <mxCell id="Y3QZ4l64_NFPgr9rFoC2-2" value="" style="edgeStyle=isometricEdgeStyle;endArrow=none;html=1;rounded=0;" parent="1" edge="1">
          <mxGeometry width="50" height="100" relative="1" as="geometry">
            <mxPoint x="390" y="620" as="sourcePoint" />
            <mxPoint x="440" y="520" as="targetPoint" />
          </mxGeometry>
        </mxCell>
        <mxCell id="Y3QZ4l64_NFPgr9rFoC2-3" value="" style="rounded=1;whiteSpace=wrap;html=1;" parent="1" vertex="1">
          <mxGeometry x="350" y="540" width="120" height="60" as="geometry" />
        </mxCell>
        <mxCell id="Y3QZ4l64_NFPgr9rFoC2-4" value="" style="rounded=1;whiteSpace=wrap;html=1;" parent="1" vertex="1">
          <mxGeometry x="290" y="140" width="120" height="60" as="geometry" />
        </mxCell>
      </root>
    </mxGraphModel>
  </diagram>
</mxfile>
